<?xml version="1.0" encoding="UTF-8" standalone="no"?>
<!-- Created with Inkscape (http://www.inkscape.org/) -->

<svg
   xmlns:dc="http://purl.org/dc/elements/1.1/"
   xmlns:cc="http://creativecommons.org/ns#"
   xmlns:rdf="http://www.w3.org/1999/02/22-rdf-syntax-ns#"
   xmlns:svg="http://www.w3.org/2000/svg"
   xmlns="http://www.w3.org/2000/svg"
   xmlns:sodipodi="http://sodipodi.sourceforge.net/DTD/sodipodi-0.dtd"
   xmlns:inkscape="http://www.inkscape.org/namespaces/inkscape"
   width="200"
   height="190"
   viewBox="0 0 52.916665 50.270834"
   version="1.1"
   id="svg8"
   inkscape:version="0.92.4 (5da689c313, 2019-01-14)"
   sodipodi:docname="pn_logo_dark.svg">
  <defs
     id="defs2" />
  <sodipodi:namedview
     id="base"
     pagecolor="#ffffff"
     bordercolor="#666666"
     borderopacity="1.0"
     inkscape:pageopacity="0.0"
     inkscape:pageshadow="2"
     inkscape:zoom="1.2905257"
     inkscape:cx="-17.733053"
     inkscape:cy="102.94741"
     inkscape:document-units="mm"
     inkscape:current-layer="layer1"
     showgrid="false"
     inkscape:snap-others="false"
     inkscape:snap-nodes="false"
     inkscape:object-paths="true"
     inkscape:window-width="1920"
     inkscape:window-height="1017"
     inkscape:window-x="-8"
     inkscape:window-y="-8"
     inkscape:window-maximized="1"
     units="px" />
  <metadata
     id="metadata5">
    <rdf:RDF>
      <cc:Work
         rdf:about="">
        <dc:format>image/svg+xml</dc:format>
        <dc:type
           rdf:resource="http://purl.org/dc/dcmitype/StillImage" />
        <dc:title></dc:title>
      </cc:Work>
    </rdf:RDF>
  </metadata>
  <g
     inkscape:label="Layer 1"
     inkscape:groupmode="layer"
     id="layer1"
     transform="translate(0,-246.72916)">
    <path
       style="color:#000000;font-style:normal;font-variant:normal;font-weight:bold;font-stretch:normal;font-size:10.66653061px;line-height:1.25;font-family:'Exo 2';-inkscape-font-specification:'Exo 2, Bold';font-variant-ligatures:normal;font-variant-position:normal;font-variant-caps:normal;font-variant-numeric:normal;font-variant-alternates:normal;font-feature-settings:normal;text-indent:0;text-align:center;text-decoration:none;text-decoration-line:none;text-decoration-style:solid;text-decoration-color:#000000;letter-spacing:0px;word-spacing:0px;text-transform:none;writing-mode:lr-tb;direction:ltr;text-orientation:mixed;dominant-baseline:auto;baseline-shift:baseline;text-anchor:middle;white-space:normal;shape-padding:0;clip-rule:nonzero;display:inline;overflow:visible;visibility:visible;opacity:1;isolation:auto;mix-blend-mode:normal;color-interpolation:sRGB;color-interpolation-filters:linearRGB;solid-color:#000000;solid-opacity:1;vector-effect:none;fill:#2d3943;fill-opacity:1;fill-rule:nonzero;stroke:none;stroke-width:0.79375005;stroke-linecap:butt;stroke-linejoin:miter;stroke-miterlimit:4;stroke-dasharray:none;stroke-dashoffset:0;stroke-opacity:1;color-rendering:auto;image-rendering:auto;shape-rendering:auto;text-rendering:auto;enable-background:accumulate"
       d="m 12.785052,260.36861 c 0,0 0,0.004 0,0.004 -1.61826,-0.53028 -3.11011,-1.01445 -4.30316,-1.3825 -1.32256,-0.43567 -2.55575,-0.8122 -3.69835,-1.1318 -1.13394,-0.31688 -2.3431,-0.61529 -3.62363,-0.89743 0,0 -0.66886,-0.22043 -0.66886,-0.22043 0,0 0,0.0713 0,0.0713 0,0 -0.1174,-0.0261 -0.1174,-0.0261 0,0 0.1174,0.83465 0.1174,0.83465 0,0 0,30.07537 0,30.07537 0,0 8.41066,2.77184 8.41066,2.77184 0,0 0,-10.89589 0,-10.89589 0.41069,0.17707 0.77207,0.35368 1.20076,0.531 1.36727,0.56552 2.76464,1.08102 4.19198,1.55142 2.70914,0.89283 4.87992,1.34142 6.54548,1.31713 0,0 0.006,0.002 0.006,0.002 0,0 0.004,-0.003 0.004,-0.003 1.68421,-0.0551 2.97536,-0.7346 3.7446,-2.05566 0,0 0,-0.004 0,-0.004 0.79751,-1.3083 1.15626,-3.27033 1.15626,-5.85328 0,-2.58684 -0.37312,-4.80048 -1.2061,-6.64768 -0.80887,-1.85197 -2.1822,-3.39948 -3.98386,-4.59847 -1.78981,-1.19107 -4.17378,-2.25537 -7.18766,-3.24863 0,0 -0.58793,-0.19376 -0.58793,-0.19376 m 0.45007,6.64811 c 1.18306,0.38989 2.0737,0.82812 2.62566,1.24179 0,0 0.0169,0.0139 0.0169,0.0139 0,0 0.0134,0.009 0.0134,0.009 0.56709,0.39188 0.86302,0.79221 1.05578,1.33057 0,0 0.006,0.0177 0.006,0.0177 0,0 0.007,0.0139 0.007,0.0139 0.22566,0.57464 0.3798,1.4724 0.3798,2.64202 0,1.13944 -0.15229,1.91507 -0.3798,2.3445 0,0 -0.007,0.0135 -0.007,0.0135 0,0 -0.006,0.0138 -0.006,0.0138 -0.19275,0.41127 -0.48868,0.61342 -1.05578,0.63153 0,0 -0.004,0.003 -0.004,0.003 0,0 -0.006,-0.002 -0.006,-0.002 -0.56485,0.0272 -1.46488,-0.12334 -2.64612,-0.48404 0,0 -4.33341,-1.42813 -4.33341,-1.42813 0,0 0,-7.76031 0,-7.76031 1.39865,0.4508 2.65032,0.84514 4.33341,1.39982 0,0 -2e-5,-2e-4 -2e-5,-2e-4"
       id="path1130"
       inkscape:connector-curvature="0" />
    <path
       style="color:#000000;font-style:normal;font-variant:normal;font-weight:bold;font-stretch:normal;font-size:10.66653061px;line-height:1.25;font-family:'Exo 2';-inkscape-font-specification:'Exo 2, Bold';font-variant-ligatures:normal;font-variant-position:normal;font-variant-caps:normal;font-variant-numeric:normal;font-variant-alternates:normal;font-feature-settings:normal;text-indent:0;text-align:center;text-decoration:none;text-decoration-line:none;text-decoration-style:solid;text-decoration-color:#000000;letter-spacing:0px;word-spacing:0px;text-transform:none;writing-mode:lr-tb;direction:ltr;text-orientation:mixed;dominant-baseline:auto;baseline-shift:baseline;text-anchor:middle;white-space:normal;shape-padding:0;clip-rule:nonzero;display:inline;overflow:visible;visibility:visible;opacity:1;isolation:auto;mix-blend-mode:normal;color-interpolation:sRGB;color-interpolation-filters:linearRGB;solid-color:#000000;solid-opacity:1;vector-effect:none;fill:#2d3943;fill-opacity:1;fill-rule:nonzero;stroke:none;stroke-width:0.79375005;stroke-linecap:butt;stroke-linejoin:miter;stroke-miterlimit:4;stroke-dasharray:none;stroke-dashoffset:0;stroke-opacity:1;color-rendering:auto;image-rendering:auto;shape-rendering:auto;text-rendering:auto;enable-background:accumulate"
       d="m 29.686812,248.61592 c -0.87422,-0.28797 -1.86453,-0.50886 -3.12792,-0.54889 -1.26342,-0.04 -2.59045,0.16357 -3.47734,0.45573 0,0 -21.47306,7.0737 -21.47306,7.0737 0,0 8.12481,2.67714 8.12481,2.67714 0,0 12.4267,-4.09384 12.4267,-4.09384 0,0 -3.81577,5.523 -3.81577,5.523 -0.25963,0.31203 -0.37614,0.61585 -0.26143,0.9139 0,0 -0.001,0.0142 -0.001,0.0142 0,0 0.0125,0.013 0.0125,0.013 0.18976,0.3693 0.80052,0.6486 1.5817,0.906 0,0 3.16243,1.04203 3.16243,1.04203 0.86496,0.285 1.85405,0.50357 3.11506,0.53985 1.26104,0.0363 2.57179,-0.16987 3.45336,-0.46033 0,0 21.47297,-7.07481 21.47297,-7.07481 0,0 -1.33833,-0.44084 -1.33833,-0.44084 0,0 -6.75577,-2.22532 -6.75577,-2.22532 0,0 -12.56766,4.16238 -12.56766,4.16238 0,0 3.90911,-5.63987 3.90911,-5.63987 0,0 0.007,-0.002 0.007,-0.002 0.2161,-0.3059 0.27764,-0.5957 0.1465,-0.88163 -0.1195,-0.37842 -0.70905,-0.67337 -1.47192,-0.92466 0,0 -3.12201,-1.02832 -3.12201,-1.02832"
       id="path1132"
       inkscape:connector-curvature="0" />
    <path
       style="opacity:1;fill:#2d3943;fill-opacity:1;stroke:none;stroke-width:0.79374999;stroke-linejoin:round;stroke-miterlimit:4;stroke-dasharray:none;stroke-dashoffset:0;stroke-opacity:1"
       d="m 39.078822,262.75367 c 0,0 0,11.00941 0,11.00941 0,1.20566 -0.77955,2.43319 -1.74788,2.75231 0,0 -8.84223,2.91406 -8.84223,2.91406 -0.96832,0.31912 -1.74788,-0.39459 -1.74788,-1.60025 0,0 0,-11.00941 0,-11.00941 0,-1.20566 0.77956,-2.43319 1.74788,-2.75231 0,0 8.84223,-2.91406 8.84223,-2.91406 0.96833,-0.31912 1.74788,0.39459 1.74788,1.60025 0,0 0,0 0,0"
       id="path1134"
       inkscape:connector-curvature="0" />
    <path
       id="path1136"
       d="m 52.111922,258.45846 c 0,0 0,11.00942 0,11.00942 0,1.20566 -0.77956,2.43319 -1.74788,2.75231 0,0 -8.84224,2.91406 -8.84224,2.91406 -0.96832,0.31912 -1.74788,-0.39459 -1.74788,-1.60025 0,0 0,-11.00941 0,-11.00941 0,-1.20566 0.77956,-2.43319 1.74788,-2.75231 0,0 8.84224,-2.91406 8.84224,-2.91406 0.96832,-0.31912 1.74788,0.39459 1.74788,1.60024 0,0 0,0 0,0"
       style="opacity:1;fill:#2d3943;fill-opacity:1;stroke:none;stroke-width:0.79374999;stroke-linejoin:round;stroke-miterlimit:4;stroke-dasharray:none;stroke-dashoffset:0;stroke-opacity:1"
       inkscape:connector-curvature="0" />
    <path
       id="path1138"
       d="m 39.078832,278.76474 c 0,0 0,11.00941 0,11.00941 0,1.20566 -0.77955,2.43319 -1.74788,2.75232 0,0 -8.84223,2.91405 -8.84223,2.91405 -0.96833,0.31913 -1.74788,-0.39458 -1.74788,-1.60024 0,0 0,-11.00942 0,-11.00942 0,-1.20566 0.77955,-2.43319 1.74788,-2.75231 0,0 8.84223,-2.91406 8.84223,-2.91406 0.96833,-0.31912 1.74788,0.39459 1.74788,1.60025 0,0 0,0 0,0"
       style="opacity:1;fill:#2d3943;fill-opacity:1;stroke:none;stroke-width:0.79374999;stroke-linejoin:round;stroke-miterlimit:4;stroke-dasharray:none;stroke-dashoffset:0;stroke-opacity:1"
       inkscape:connector-curvature="0" />
    <path
       inkscape:connector-curvature="0"
       style="opacity:1;fill:#0892d0;fill-opacity:1;stroke:none;stroke-width:0.79374999;stroke-linejoin:round;stroke-miterlimit:4;stroke-dasharray:none;stroke-dashoffset:0;stroke-opacity:1"
       d="m 52.111932,274.46953 c 0,0 0,11.00942 0,11.00942 0,1.20566 -0.77956,2.43319 -1.74789,2.75231 0,0 -8.84223,2.91406 -8.84223,2.91406 -0.96832,0.31912 -1.74788,-0.39459 -1.74788,-1.60024 0,0 0,-11.00942 0,-11.00942 0,-1.20566 0.77956,-2.43319 1.74788,-2.75231 0,0 8.84223,-2.91406 8.84223,-2.91406 0.96833,-0.31912 1.74789,0.39458 1.74789,1.60024 0,0 0,0 0,0"
       id="path1140" />
  </g>
</svg>
