<?xml version="1.0" encoding="UTF-8" standalone="no"?>
<!-- Created with Inkscape (http://www.inkscape.org/) -->

<svg
   xmlns:dc="http://purl.org/dc/elements/1.1/"
   xmlns:cc="http://creativecommons.org/ns#"
   xmlns:rdf="http://www.w3.org/1999/02/22-rdf-syntax-ns#"
   xmlns:svg="http://www.w3.org/2000/svg"
   xmlns="http://www.w3.org/2000/svg"
   xmlns:sodipodi="http://sodipodi.sourceforge.net/DTD/sodipodi-0.dtd"
   xmlns:inkscape="http://www.inkscape.org/namespaces/inkscape"
   width="630"
   height="160"
   viewBox="0 0 166.68748 42.333334"
   version="1.1"
   id="svg8"
   inkscape:version="0.92.4 (5da689c313, 2019-01-14)"
   sodipodi:docname="logo.svg"
   inkscape:export-filename="C:\Users\pierr\source\repos\Web Apps\TrevetteApp\logo.png"
   inkscape:export-xdpi="100"
   inkscape:export-ydpi="100">
  <defs
     id="defs2" />
  <sodipodi:namedview
     id="base"
     pagecolor="#ffffff"
     bordercolor="#666666"
     borderopacity="1.0"
     inkscape:pageopacity="0.0"
     inkscape:pageshadow="2"
     inkscape:zoom="1.4142136"
     inkscape:cx="379.71752"
     inkscape:cy="39.639693"
     inkscape:document-units="mm"
     inkscape:current-layer="layer1"
     showgrid="false"
     units="px"
     inkscape:snap-others="false"
     inkscape:object-paths="false"
     inkscape:object-nodes="false"
     inkscape:window-width="1815"
     inkscape:window-height="1057"
     inkscape:window-x="97"
     inkscape:window-y="-8"
     inkscape:window-maximized="1" />
  <metadata
     id="metadata5">
    <rdf:RDF>
      <cc:Work
         rdf:about="">
        <dc:format>image/svg+xml</dc:format>
        <dc:type
           rdf:resource="http://purl.org/dc/dcmitype/StillImage" />
        <dc:title></dc:title>
      </cc:Work>
    </rdf:RDF>
  </metadata>
  <g
     inkscape:label="Layer 1"
     inkscape:groupmode="layer"
     id="layer1"
     transform="translate(0,-254.66665)">
    <path
       style="opacity:1;fill:#232123;fill-opacity:1;stroke:none;stroke-width:3.96875072;stroke-miterlimit:4;stroke-dasharray:none;stroke-dashoffset:0;stroke-opacity:1"
       d="m 31.144267,177.74149 c -4.60638,0.31248 -8.012648,3.90837 -9.876337,7.62203 -1.852336,3.69106 -2.695932,8.05162 -2.695932,12.37088 0,4.01378 0.72869,7.96433 2.318209,11.26339 l -20.35249125,3.15943 21.30153425,-1.445 c 0.02285,0.036 0.04624,0.0719 0.06964,0.10772 L 0.53774675,214.13747 23.194881,212.60051 0.53774675,216.11769 23.195353,214.58066 0.53774675,218.09791 31.139472,216.02197 c 0.0015,-4e-5 0.0024,-8e-5 0.0047,-3e-4 l 11.940537,-0.80993 c 4.606385,-0.31252 8.01287,-3.90838 9.876576,-7.62206 1.852332,-3.69108 2.695687,-8.05167 2.695687,-12.37092 0,-4.31925 -0.843355,-8.56537 -2.695687,-12.00514 -1.863706,-3.46083 -5.270191,-6.59454 -9.876576,-6.28208 z m 0,0.7176 2.436402,-0.16527 c 0.828783,-0.0563 1.617408,0.009 2.363561,0.17539 l -2.436406,0.16527 c -0.746148,-0.16616 -1.534765,-0.23197 -2.363557,-0.17539 z m 4.633695,-0.31434 0.950497,-0.0645 c 4.254278,-0.28855 7.455426,2.62557 9.239499,5.93853 1.784063,3.31294 2.615052,7.45463 2.615052,11.6798 0,4.22518 -0.830989,8.47963 -2.615052,12.03463 -1.784073,3.55502 -4.985221,6.90337 -9.239499,7.19198 v 7e-5 l -0.950497,0.0646 v -5e-5 c 4.254303,-0.28862 7.45543,-3.63697 9.239509,-7.19199 1.784058,-3.555 2.615114,-7.80948 2.615114,-12.03465 0,-4.22515 -0.831056,-8.36684 -2.615114,-11.6798 -1.784079,-3.31295 -4.985206,-6.22706 -9.239509,-5.93849 z m 1.722771,-0.11678 0.950477,-0.0646 c 4.254304,-0.28857 7.455431,2.62555 9.239494,5.93851 1.784068,3.31296 2.615108,7.45466 2.615108,11.67982 0,4.22516 -0.83104,8.47962 -2.615108,12.03462 -1.784063,3.55502 -4.98519,6.90337 -9.239494,7.192 v 5e-5 l -0.950477,0.0645 v -6e-5 c 4.254283,-0.28861 7.455415,-3.63697 9.239483,-7.192 1.784074,-3.55498 2.615119,-7.80947 2.615119,-12.03462 0,-4.22518 -0.831045,-8.36684 -2.615119,-11.6798 -1.784068,-3.31295 -4.9852,-6.22708 -9.239483,-5.93851 z m 3.14779,-0.21355 2.436381,-0.16527 c 0.828799,-0.0563 1.617414,0.009 2.363582,0.17539 l -2.436391,0.1653 c -0.746158,-0.16616 -1.534778,-0.23199 -2.363572,-0.17542 z m -3.362018,2.72185 2.436408,-0.1653 c 0.202303,0.16738 0.398616,0.34243 0.588944,0.52415 l -2.436387,0.16527 c -0.190322,-0.1817 -0.386651,-0.35679 -0.588965,-0.52412 z m 9.504256,-0.64474 2.436407,-0.16527 c 0.202298,0.16737 0.398617,0.34244 0.588934,0.52414 l -2.436396,0.16526 c -0.190313,-0.18168 -0.386626,-0.35676 -0.588945,-0.52413 z m -16.402685,3.37163 a 7.0958162,13.681301 1.4332708 0 1 7.101869,13.18794 7.0958162,13.681301 1.4332708 0 1 -7.101869,14.15142 7.0958162,13.681301 1.4332708 0 1 -7.101857,-13.18791 7.0958162,13.681301 1.4332708 0 1 7.101857,-14.15145 z m 9.056289,-0.37951 2.436407,-0.16529 c 0.176208,0.24787 0.343788,0.50104 0.502699,0.75808 l -2.436407,0.16526 c -0.158895,-0.25702 -0.32646,-0.51019 -0.502699,-0.75805 z m 9.504256,-0.64472 2.436391,-0.1653 c 0.176228,0.24786 0.343808,0.50106 0.502693,0.75807 l -2.436386,0.16527 c -0.15889,-0.25702 -0.32647,-0.5102 -0.502698,-0.75804 z m -18.560545,3.08243 a 6.0274105,11.621329 1.4332704 0 0 -6.032555,12.02072 6.0274105,11.621329 1.4332704 0 0 6.032555,11.20223 6.0274105,11.621329 1.4332704 0 0 4.155082,-3.49432 6.0274105,11.621329 1.4332704 0 1 -1.870705,-8.2721 6.0274105,11.621329 1.4332704 0 1 1.877471,-8.52634 6.0274105,11.621329 1.4332704 0 0 -4.161848,-2.93019 z m 10.440836,-0.0378 2.436401,-0.16526 c 0.151821,0.3238 0.295429,0.65428 0.430779,0.99093 l -2.436381,0.16525 c -0.135371,-0.33662 -0.278953,-0.66711 -0.430799,-0.99092 z m 9.504261,-0.64472 2.43638,-0.16528 c 0.151826,0.32383 0.295424,0.65429 0.430784,0.99093 l -2.436391,0.16527 c -0.13534,-0.33663 -0.278949,-0.66711 -0.430773,-0.99092 z m -8.5558,3.07414 2.436417,-0.16526 c 0.128389,0.40145 0.24583,0.81006 0.353537,1.22421 l -2.436396,0.16529 c -0.107728,-0.41417 -0.225097,-0.8228 -0.353558,-1.22424 z m 9.504245,-0.64472 2.436407,-0.16526 c 0.128393,0.40144 0.245855,0.81008 0.353537,1.22422 l -2.436401,0.16526 c -0.107703,-0.41416 -0.225088,-0.82277 -0.353543,-1.22422 z m -8.864977,3.09513 2.436392,-0.16527 c 0.09921,0.48026 0.185345,0.96689 0.258848,1.45865 l -2.436391,0.16526 c -0.07349,-0.49173 -0.1596,-0.9784 -0.258849,-1.45864 z m 9.504255,-0.64472 2.436397,-0.16528 c 0.09919,0.48026 0.18534,0.96689 0.258828,1.45864 l -2.436391,0.16528 c -0.07364,-0.49177 -0.159605,-0.97838 -0.258834,-1.45864 z m -9.113033,3.11195 2.436392,-0.16527 c 0.0632,0.56017 0.110391,1.12567 0.142096,1.69462 l -2.436396,0.16526 c -0.03173,-0.56891 -0.07882,-1.13446 -0.142092,-1.69461 z m 9.504235,-0.64472 2.436407,-0.16528 c 0.0632,0.56017 0.110392,1.12568 0.142086,1.69463 l -2.436391,0.16527 c -0.03162,-0.56894 -0.0788,-1.13444 -0.142102,-1.69462 z m -9.328376,3.12657 2.436396,-0.1653 c 0.01064,0.32106 0.01527,0.64277 0.01527,0.96509 0,0.32235 -0.0051,0.64487 -0.01527,0.96718 l -2.436396,0.16528 c 0.01059,-0.32233 0.01527,-0.64485 0.01527,-0.9672 0,-0.3223 -0.0051,-0.64402 -0.01527,-0.96505 z m 9.50425,-0.64474 2.436386,-0.16528 c 0.01059,0.32107 0.01527,0.64276 0.01527,0.96509 0,0.32235 -0.0051,0.64485 -0.01527,0.96718 l -2.436386,0.16527 c 0.01059,-0.32231 0.01527,-0.64485 0.01527,-0.96717 0,-0.32233 -0.0051,-0.64405 -0.01527,-0.96509 z m -9.538017,3.36879 2.436396,-0.16528 c -0.03172,0.57325 -0.07881,1.14513 -0.142096,1.7139 l -2.436392,0.16528 c 0.0632,-0.56875 0.110397,-1.14067 0.142092,-1.7139 z m 9.504245,-0.64472 2.436391,-0.16529 c -0.03172,0.57325 -0.07881,1.14514 -0.142086,1.71391 l -2.436407,0.16527 c 0.0632,-0.56875 0.110412,-1.14066 0.142102,-1.71389 z m -9.77871,3.38516 2.436391,-0.16526 c -0.07349,0.5017 -0.159599,1.00005 -0.258848,1.49374 l -2.436392,0.16527 c 0.0992,-0.4937 0.185345,-0.99202 0.258849,-1.49375 z m 9.50424,-0.64473 2.436391,-0.16526 c -0.07364,0.50168 -0.15961,1.00005 -0.258828,1.49374 l -2.436397,0.16529 c 0.09919,-0.49369 0.185336,-0.99204 0.258834,-1.49377 z m -10.048799,3.40344 2.436396,-0.16527 c -0.107733,0.42877 -0.225112,0.85331 -0.353537,1.27217 l -2.436417,0.16528 c 0.128517,-0.41887 0.245855,-0.84341 0.353558,-1.27218 z m 9.50423,-0.64473 2.436401,-0.16526 c -0.107728,0.42876 -0.225097,0.8533 -0.353537,1.27217 l -2.436407,0.16528 c 0.128394,-0.41887 0.245866,-0.84341 0.353543,-1.27219 z m -10.37545,3.42565 2.436381,-0.16528 c -0.13535,0.35501 -0.278958,0.70497 -0.430779,1.04939 l -2.436401,0.16525 c 0.151846,-0.3444 0.295428,-0.69437 0.430799,-1.04936 z m 9.504235,-0.64473 2.436391,-0.16527 c -0.13536,0.35499 -0.278958,0.70497 -0.430784,1.04938 l -2.43638,0.16526 c 0.151824,-0.34439 0.295433,-0.69437 0.430773,-1.04937 z m -10.816882,3.45554 2.436407,-0.16528 c -0.158911,0.27857 -0.326491,0.55448 -0.502699,0.82624 l -2.436407,0.1653 c 0.176239,-0.27179 0.343804,-0.54769 0.502699,-0.82626 z m 9.504255,-0.64472 2.436386,-0.16527 c -0.158885,0.27857 -0.326465,0.55446 -0.502693,0.82623 l -2.436391,0.16527 c 0.176228,-0.27176 0.343808,-0.54766 0.502698,-0.82623 z m -11.575849,3.50707 2.436387,-0.16528 c -0.190328,0.20754 -0.386667,0.40922 -0.589006,0.60405 l -2.436392,0.16527 c 0.202324,-0.19482 0.398678,-0.3965 0.589011,-0.60404 z m 9.504236,-0.64471 2.436396,-0.1653 c -0.190338,0.20757 -0.386677,0.40923 -0.589001,0.60407 l -2.436401,0.16524 c 0.202339,-0.1948 0.398673,-0.39648 0.589006,-0.60401 z m -13.872057,3.66276 2.436427,-0.16525 c -0.746122,0.26733 -1.53469,0.44011 -2.363407,0.49634 v 5e-5 l -2.436402,0.1653 v -8e-5 c 0.828718,-0.0563 1.617291,-0.22901 2.363382,-0.49636 z m 9.504266,-0.64471 2.436396,-0.16529 c -0.746106,0.26737 -1.534669,0.44015 -2.363407,0.49636 v 6e-5 l -2.436381,0.16526 v -5e-5 c 0.828732,-0.0563 1.617291,-0.22901 2.363392,-0.49634 z"
       id="path4636"
       inkscape:connector-curvature="0" />
    <flowRoot
       xml:space="preserve"
       id="flowRoot814"
       style="font-style:normal;font-variant:normal;font-weight:bold;font-stretch:normal;font-size:10.66666698px;line-height:1.25;font-family:GeosansLight;-inkscape-font-specification:'GeosansLight, Bold';font-variant-ligatures:normal;font-variant-caps:normal;font-variant-numeric:normal;font-feature-settings:normal;text-align:center;letter-spacing:0px;word-spacing:0px;writing-mode:lr-tb;text-anchor:middle;fill:#232123;fill-opacity:1;stroke:none;stroke-width:0.92814708"
       transform="matrix(0.28506618,0,0,0.28506618,270.23635,99.456143)"
       inkscape:export-xdpi="100"
       inkscape:export-ydpi="100"><flowRegion
         id="flowRegion816"
         style="fill:#232123;fill-opacity:1;stroke-width:0.92814708"><rect
           id="rect818"
           width="462.44785"
           height="206.47517"
           x="-777.81744"
           y="287.68124"
           style="fill:#232123;fill-opacity:1;stroke-width:0.92814708" /></flowRegion><flowPara
         id="flowPara820"
         style="font-style:normal;font-variant:normal;font-weight:bold;font-stretch:normal;font-size:96px;font-family:'Racing Sans One';-inkscape-font-specification:'Racing Sans One Bold';fill:#232123;fill-opacity:1;stroke-width:0.92814708">Trevette</flowPara></flowRoot>    <path
       style="opacity:1;fill:#232123;fill-opacity:1;stroke:none;stroke-width:3.96875072;stroke-miterlimit:4;stroke-dasharray:none;stroke-dashoffset:0;stroke-opacity:1"
       d="m 43.463143,255.58237 c -0.14159,0.003 -0.28444,0.01 -0.42839,0.0196 l -11.94036,0.80977 c -4.60638,0.31248 -8.01271,3.90862 -9.8764,7.62228 -1.85233,3.69106 -2.69596,8.05156 -2.69596,12.37082 0,4.01378 0.72869,7.96433 2.31821,11.26339 l -20.35225041,3.1595 21.30154041,-1.44539 c 0.0229,0.036 0.0459,0.0722 0.0693,0.108 L 0.48804259,292.808 23.145063,291.27063 0.48804259,294.78824 23.145573,293.25087 0.48804259,296.76848 31.089793,294.69212 c 0.002,-4e-5 0.002,2.2e-4 0.005,0 l 11.94031,-0.81028 c 4.60639,-0.31252 8.0127,-3.90808 9.8764,-7.62176 1.85233,-3.69108 2.69596,-8.05157 2.69596,-12.37082 0,-4.31925 -0.84363,-8.5657 -2.69596,-12.00547 -1.80546,-3.35268 -5.05854,-6.39842 -9.448,-6.30142 z m 0.18604,0.71727 c 0.60643,0.002 1.18962,0.0705 1.74925,0.19533 l -2.43655,0.16537 c -0.74615,-0.16616 -1.53437,-0.23227 -2.36316,-0.1757 l 2.43603,-0.16537 c 0.2072,-0.0141 0.41229,-0.0204 0.61443,-0.0196 z m -4.85242,0.31626 c 4.05725,-0.0883 7.1156,2.74679 8.84391,5.95622 1.78407,3.31296 2.61534,7.45475 2.61534,11.67991 0,4.22516 -0.83127,8.4794 -2.61534,12.0344 -1.78407,3.55503 -4.98493,6.9037 -9.23923,7.19233 l -0.95085,0.0646 c 4.25428,-0.28861 7.45568,-3.6373 9.23975,-7.19233 1.78407,-3.55498 2.61482,-7.80926 2.61482,-12.03441 0,-4.22518 -0.83075,-8.36694 -2.61482,-11.6799 -1.78407,-3.31295 -4.98547,-6.22723 -9.23975,-5.93866 l 0.95085,-0.0646 c 0.13294,-0.009 0.26445,-0.0147 0.39532,-0.0176 z m -1.72237,0.11678 c 4.05722,-0.0883 7.11506,2.7468 8.84339,5.95623 1.78406,3.31294 2.61534,7.45474 2.61534,11.67991 0,4.22518 -0.83128,8.47992 -2.61534,12.03492 -1.78408,3.55502 -4.98496,6.9032 -9.23923,7.19181 l -0.95033,0.0646 c 4.2543,-0.28861 7.45515,-3.63678 9.23923,-7.1918 1.78405,-3.555 2.61534,-7.80976 2.61534,-12.03493 0,-4.22515 -0.83129,-8.36695 -2.61534,-11.67991 -1.78408,-3.31295 -4.98493,-6.2267 -9.23923,-5.93813 v -5.3e-4 l 0.95033,-0.0641 c 0.13294,-0.009 0.26496,-0.0152 0.39584,-0.0181 z m -2.92954,0.21188 c 0.60642,0.002 1.18963,0.07 1.74925,0.19482 l -2.43603,0.16536 c -0.74615,-0.16616 -1.53489,-0.23176 -2.36368,-0.17518 l 2.43654,-0.16537 c 0.2072,-0.0141 0.41178,-0.0204 0.61392,-0.0196 z m 15.03216,1.4521 c 0.2023,0.16737 0.39879,0.3423 0.58911,0.524 l -2.43654,0.16537 c -0.19032,-0.18168 -0.38628,-0.35663 -0.5886,-0.524 z m -9.50381,0.64441 c 0.2023,0.16738 0.39826,0.3428 0.58859,0.52452 l -2.43603,0.16536 c -0.19032,-0.1817 -0.3868,-0.35719 -0.58911,-0.52452 z m 11.66182,1.70274 c 0.17622,0.24786 0.34392,0.50108 0.50281,0.75809 l -2.43655,0.16537 c -0.15889,-0.25702 -0.32658,-0.51026 -0.50281,-0.7581 z m -9.50433,0.64492 c 0.17621,0.24787 0.3439,0.50105 0.50281,0.75809 l -2.43655,0.16537 c -0.15889,-0.25702 -0.32605,-0.51024 -0.50229,-0.7581 z m -11.49232,0.54467 a 7.0958161,13.681301 1.4332708 0 1 7.10137,13.18783 7.0958161,13.681301 1.4332708 0 1 -7.10137,14.15159 7.0958161,13.681301 1.4332708 0 1 -7.1019,-13.18783 7.0958161,13.681301 1.4332708 0 1 7.1019,-14.15159 z m 22.38106,1.21026 c 0.15182,0.32383 0.29562,0.65452 0.43098,0.99116 l -2.43655,0.16536 c -0.13534,-0.33663 -0.27864,-0.66734 -0.43046,-0.99115 z m -9.50433,0.64492 c 0.15182,0.3238 0.29563,0.65451 0.43098,0.99116 l -2.43654,0.16485 c -0.13537,-0.33662 -0.27862,-0.66683 -0.43047,-0.99064 z m -12.5057,0.20051 a 6.0274104,11.621329 1.4332704 0 0 -0.37103,0.003 6.0274104,11.621329 1.4332704 0 0 -6.03271,12.02097 6.0274104,11.621329 1.4332704 0 0 6.03271,11.2019 6.0274104,11.621329 1.4332704 0 0 4.15478,-3.49436 6.0274104,11.621329 1.4332704 0 1 -1.87069,-8.27184 6.0274104,11.621329 1.4332704 0 1 1.87741,-8.52662 6.0274104,11.621329 1.4332704 0 0 -3.79047,-2.93263 z m 22.95881,1.5844 c 0.12839,0.40144 0.24578,0.81007 0.35346,1.22421 l -2.43654,0.16485 c -0.1077,-0.41416 -0.22501,-0.82276 -0.35347,-1.22421 z m -9.50433,0.6444 c 0.12839,0.40145 0.24576,0.81007 0.35346,1.22422 l -2.43654,0.16536 c -0.10773,-0.41417 -0.22501,-0.82277 -0.35347,-1.22421 z m 20.44991,1.15807 -0.49247,2.07998 h 4.35115 l -3.25613,15.29777 h 5.91075 l 3.256649,-15.29777 h 4.405931 l 0.465606,-2.07998 z m -10.30635,0.64751 c 0.0992,0.48026 0.18542,0.96707 0.2589,1.45882 l -2.43654,0.16537 c -0.0736,-0.49177 -0.15967,-0.97857 -0.2589,-1.45883 z m -9.50432,0.64492 c 0.0992,0.48026 0.18539,0.96706 0.25889,1.45882 l -2.43654,0.16537 c -0.0735,-0.49173 -0.15965,-0.97859 -0.2589,-1.45883 z m 94.290887,0.65061 c -0.45611,0.58381 -0.88486,1.07657 -1.28623,1.47794 -0.38313,0.40137 -0.79359,0.73868 -1.23145,1.01234 -0.41962,0.27367 -0.88494,0.50176 -1.39578,0.6842 -0.51084,0.18244 -1.10366,0.34652 -1.7787,0.49247 l -0.38292,1.83348 h 2.13423 l -1.14928,5.44618 c -0.0912,0.40138 -0.15472,0.76611 -0.1912,1.09451 -0.0182,0.3284 -0.0274,0.60221 -0.0274,0.82114 0,0.6203 0.10007,1.11306 0.30075,1.47794 0.21893,0.36489 0.50189,0.64733 0.84853,0.84801 0.34664,0.18245 0.73881,0.30132 1.17667,0.35606 0.43786,0.073 0.8849,0.10903 1.34101,0.10903 0.25541,0 0.547,-0.009 0.87539,-0.0269 0.34665,0 0.67532,-0.0183 0.98547,-0.0548 0.3284,-0.0183 0.6205,-0.0365 0.87592,-0.0548 0.27366,-0.0183 0.47432,-0.0457 0.60203,-0.0822 l 0.41031,-1.88826 c -0.72977,10e-6 -1.23167,-0.0457 -1.50533,-0.13694 -0.25542,-0.0912 -0.38293,-0.31931 -0.38293,-0.68419 0,-0.18245 0.0274,-0.43797 0.0822,-0.76637 0.0547,-0.32839 0.12737,-0.70227 0.21859,-1.12189 l 1.12241,-5.33663 h 3.47524 l -1.14928,5.44618 c -0.0912,0.40138 -0.15523,0.76611 -0.19172,1.09451 -0.0182,0.3284 -0.0274,0.60221 -0.0274,0.82114 0,0.6203 0.10059,1.11306 0.30127,1.47794 0.21894,0.36489 0.50189,0.64733 0.84853,0.84801 0.34664,0.18245 0.73881,0.30132 1.17667,0.35606 0.43787,0.073 0.8849,0.10903 1.34101,0.10903 0.25542,0 0.547,-0.009 0.8754,-0.0269 0.34664,0 0.67531,-0.0183 0.98547,-0.0548 0.32839,-0.0183 0.61998,-0.0365 0.87539,-0.0548 0.27367,-0.0183 0.47432,-0.0457 0.60204,-0.0822 l 0.41082,-1.88826 c -0.72977,10e-6 -1.23167,-0.0457 -1.50533,-0.13694 -0.25542,-0.0912 -0.38292,-0.31931 -0.38292,-0.68419 0,-0.18245 0.0274,-0.43797 0.0822,-0.76637 0.0547,-0.32839 0.12737,-0.70227 0.21859,-1.12189 l 1.12242,-5.33663 h 2.16162 l 0.35605,-1.83348 h -2.13475 l 0.79375,-3.66695 h -2.81895 c -0.45611,0.58381 -0.88485,1.104 -1.28623,1.56011 -0.38313,0.4561 -0.78444,0.83913 -1.20406,1.14928 -0.41962,0.31015 -0.88494,0.54739 -1.39578,0.71159 -0.51084,0.16419 -1.11281,0.24597 -1.80609,0.24597 h -1.34101 l 0.79375,-3.66695 z m -84.395367,1.17202 c 0.0632,0.56017 0.11041,1.12552 0.14211,1.69447 l -2.43655,0.16536 c -0.0316,-0.56894 -0.0788,-1.13429 -0.14211,-1.69447 z m -9.50434,0.6444 c 0.0632,0.56017 0.11041,1.12604 0.14211,1.69499 l -2.43654,0.16536 c -0.0317,-0.56891 -0.0788,-1.13483 -0.14211,-1.69498 z m 41.839313,1.54978 c -1.076412,0 -1.94305,0.22809 -2.599843,0.68419 -0.656791,0.45611 -1.195271,1.01236 -1.614887,1.66915 h -0.191204 l -0.410827,-2.05259 h -4.460711 l -2.490287,11.76776 h 5.582605 l 1.751833,-8.18244 c 0.218929,-0.27367 0.428731,-0.44741 0.629417,-0.52039 0.218932,-0.0912 0.41959,-0.13642 0.60203,-0.13642 0.364885,0 0.629553,0.22809 0.79375,0.68419 0.164198,0.43787 0.264269,1.22221 0.300758,2.35335 h 2.982764 l 1.204576,-5.63738 c -0.200686,-0.14596 -0.410488,-0.25569 -0.629417,-0.32867 -0.200686,-0.0912 -0.401862,-0.15471 -0.602549,-0.1912 -0.182441,-0.0547 -0.355666,-0.0822 -0.519864,-0.0822 -0.145955,-0.0183 -0.255169,-0.0274 -0.328144,-0.0274 z m 10.738879,0 c -1.678472,0 -3.08307,0.20066 -4.214214,0.60203 -1.112899,0.40137 -2.006971,0.93933 -2.682007,1.61437 -0.656792,0.65679 -1.131261,1.41422 -1.423168,2.2717 -0.273664,0.85748 -0.41031,1.73326 -0.41031,2.62723 0,0.98519 0.164078,1.81525 0.492474,2.49028 0.346641,0.6568 0.811967,1.18561 1.39578,1.58699 0.583817,0.40137 1.268087,0.68433 2.05259,0.84852 0.7845,0.1642 1.632852,0.24598 2.545064,0.24598 0.492593,0 1.012267,-0.0269 1.559595,-0.0816 0.547327,-0.0365 1.085805,-0.10049 1.614887,-0.19172 0.52908,-0.10946 1.03099,-0.24611 1.505334,-0.41031 0.47435,-0.16419 0.89395,-0.36485 1.25883,-0.60203 l 0.71107,-2.9285 h -4.488091 c -0.109466,0.36488 -0.264401,0.69356 -0.465087,0.98547 -0.182444,0.29191 -0.383101,0.53777 -0.602031,0.73846 -0.200686,0.20068 -0.410488,0.35613 -0.62942,0.4656 -0.200686,0.10947 -0.383055,0.16381 -0.547253,0.16381 -0.21893,0 -0.392155,-0.0543 -0.519864,-0.16381 -0.109466,-0.12771 -0.200909,-0.27402 -0.273886,-0.43822 -0.05473,-0.18244 -0.09131,-0.37395 -0.109554,-0.57464 -0.01826,-0.20068 -0.02739,-0.38305 -0.02739,-0.54725 0,-0.29191 0.0092,-0.62007 0.02739,-0.98495 0.03649,-0.36489 0.09135,-0.74843 0.16433,-1.1498 h 7.689966 c 0.29191,-0.40138 0.51085,-0.88447 0.65681,-1.45004 0.14595,-0.58382 0.2191,-1.1223 0.2191,-1.61489 0,-1.20412 -0.46532,-2.08905 -1.39578,-2.65462 -0.91221,-0.56557 -2.280744,-0.84801 -4.105165,-0.84801 z m 28.595675,0 c -1.67847,0 -3.08307,0.20066 -4.21421,0.60203 -1.1129,0.40137 -2.00697,0.93933 -2.68201,1.61437 -0.65679,0.65679 -1.13126,1.41422 -1.42317,2.2717 -0.27366,0.85748 -0.41031,1.73326 -0.41031,2.62723 0,0.98519 0.16408,1.81525 0.49248,2.49028 0.34664,0.6568 0.81196,1.18561 1.39578,1.58699 0.58381,0.40137 1.26808,0.68433 2.05258,0.84852 0.78451,0.1642 1.63286,0.24598 2.54507,0.24598 0.49259,0 1.01227,-0.0269 1.55959,-0.0816 0.54733,-0.0365 1.08581,-0.10049 1.61489,-0.19172 0.52908,-0.10946 1.03098,-0.24611 1.50533,-0.41031 0.47435,-0.16419 0.89396,-0.36485 1.25884,-0.60203 l 0.71107,-2.9285 h -4.48758 c -0.10947,0.36488 -0.26492,0.69356 -0.46561,0.98547 -0.18244,0.29191 -0.38309,0.53777 -0.60203,0.73846 -0.20068,0.20068 -0.41048,0.35613 -0.62942,0.4656 -0.20068,0.10947 -0.38305,0.16381 -0.54725,0.16381 -0.21893,0 -0.39215,-0.0543 -0.51986,-0.16381 -0.10947,-0.12771 -0.20091,-0.27402 -0.27389,-0.43822 -0.0547,-0.18244 -0.0913,-0.37395 -0.10955,-0.57464 -0.0183,-0.20068 -0.0274,-0.38305 -0.0274,-0.54725 0,-0.29191 0.009,-0.62007 0.0274,-0.98495 0.0365,-0.36489 0.0913,-0.74843 0.16433,-1.1498 h 7.68997 c 0.29191,-0.40138 0.51085,-0.88447 0.65681,-1.45004 0.14595,-0.58382 0.21911,-1.1223 0.21911,-1.61489 0,-1.20412 -0.46533,-2.08905 -1.39578,-2.65462 -0.91222,-0.56557 -2.28076,-0.84801 -4.10518,-0.84801 z m 34.31522,0 c -1.67847,0 -3.08359,0.20066 -4.21473,0.60203 -1.1129,0.40137 -2.00697,0.93933 -2.68201,1.61437 -0.65679,0.65679 -1.13074,1.41422 -1.42265,2.2717 -0.27367,0.85748 -0.41083,1.73326 -0.41083,2.62723 0,0.98519 0.1646,1.81525 0.49299,2.49028 0.34664,0.6568 0.81145,1.18561 1.39527,1.58699 0.58381,0.40137 1.26808,0.68433 2.05258,0.84852 0.78451,0.1642 1.63286,0.24598 2.54507,0.24598 0.49259,0 1.01278,-0.0269 1.56011,-0.0816 0.54733,-0.0365 1.08529,-0.10049 1.61437,-0.19172 0.52908,-0.10946 1.03099,-0.24611 1.50534,-0.41031 0.47435,-0.16419 0.89395,-0.36485 1.25883,-0.60203 l 0.71159,-2.9285 h -4.4881 c -0.10946,0.36488 -0.2644,0.69356 -0.46509,0.98547 -0.18244,0.29191 -0.38361,0.53777 -0.60254,0.73846 -0.20069,0.20068 -0.41049,0.35613 -0.62942,0.4656 -0.20069,0.10947 -0.38306,0.16381 -0.54726,0.16381 -0.21893,0 -0.39215,-0.0543 -0.51986,-0.16381 -0.10947,-0.12771 -0.20039,-0.27402 -0.27337,-0.43822 -0.0547,-0.18244 -0.0913,-0.37395 -0.10955,-0.57464 -0.0183,-0.20068 -0.0274,-0.38305 -0.0274,-0.54725 0,-0.29191 0.009,-0.62007 0.0274,-0.98495 0.0365,-0.36489 0.0908,-0.74843 0.16381,-1.1498 h 7.68997 c 0.29191,-0.40138 0.51085,-0.88447 0.65681,-1.45004 0.14595,-0.58382 0.21911,-1.1223 0.21911,-1.61489 0,-1.20412 -0.46533,-2.08905 -1.39578,-2.65462 -0.91222,-0.56557 -2.28024,-0.84801 -4.10466,-0.84801 z m -105.809057,0.28732 c 0.0106,0.32107 0.0155,0.64298 0.0155,0.96531 0,0.32235 -0.005,0.64506 -0.0155,0.96739 l -2.43654,0.16485 c 0.0106,-0.32231 0.0155,-0.64455 0.0155,-0.96687 0,-0.32233 -0.005,-0.64428 -0.0155,-0.96532 z m 49.632107,0.0134 1.88826,11.76776 h 5.71955 l 6.21203,-11.76776 h -2.90061 l -3.99562,8.04603 -1.12189,-8.04603 z m -59.136427,0.63149 c 0.0106,0.32106 0.0155,0.643 0.0155,0.96532 0,0.32235 -0.005,0.64455 -0.0155,0.96686 l -2.43603,0.16537 c 0.0106,-0.32233 0.015,-0.64504 0.015,-0.96739 0,-0.3223 -0.005,-0.64376 -0.015,-0.96479 z m 52.046948,0.92863 c 0.255418,0 0.474364,0.10007 0.656807,0.30075 0.182441,0.20069 0.273368,0.58423 0.273368,1.1498 0,0.20069 -0.01778,0.41964 -0.05426,0.65681 -0.01826,0.23718 -0.04568,0.45561 -0.08216,0.65629 -0.03649,0.23718 -0.07307,0.46527 -0.109556,0.6842 h -3.119704 c 0.109466,-0.45611 0.246112,-0.88485 0.41031,-1.28623 0.164198,-0.41962 0.346567,-0.78435 0.547254,-1.09451 0.200686,-0.32839 0.419631,-0.58391 0.656807,-0.76636 0.255418,-0.20068 0.52923,-0.30075 0.821139,-0.30075 z m 28.595669,0 c 0.25542,0 0.47437,0.10007 0.65681,0.30075 0.18244,0.20069 0.27337,0.58423 0.27337,1.1498 0,0.20069 -0.0178,0.41964 -0.0543,0.65681 -0.0183,0.23718 -0.0457,0.45561 -0.0822,0.65629 -0.0365,0.23718 -0.0731,0.46527 -0.10955,0.6842 h -3.11971 c 0.10947,-0.45611 0.24612,-0.88485 0.41031,-1.28623 0.1642,-0.41962 0.34657,-0.78435 0.54726,-1.09451 0.20068,-0.32839 0.41963,-0.58391 0.65681,-0.76636 0.25542,-0.20068 0.52923,-0.30075 0.82113,-0.30075 z m 34.31471,0 c 0.25541,0 0.47436,0.10007 0.6568,0.30075 0.18245,0.20069 0.27389,0.58423 0.27389,1.1498 0,0.20069 -0.0183,0.41964 -0.0548,0.65681 -0.0182,0.23718 -0.0457,0.45561 -0.0822,0.65629 -0.0365,0.23718 -0.0731,0.46527 -0.10956,0.6842 h -3.11971 c 0.10947,-0.45611 0.24612,-0.88485 0.41032,-1.28623 0.1642,-0.41962 0.34708,-0.78435 0.54777,-1.09451 0.20068,-0.32839 0.41911,-0.58391 0.65629,-0.76636 0.25542,-0.20068 0.52923,-0.30075 0.82114,-0.30075 z m -105.486587,1.15083 c -0.0317,0.57325 -0.0788,1.14482 -0.14211,1.71359 l -2.43655,0.16537 c 0.0632,-0.56875 0.11042,-1.14037 0.14211,-1.71359 z m -9.50434,0.64441 c -0.0317,0.57325 -0.0788,1.14533 -0.14211,1.7141 l -2.43654,0.16537 c 0.0632,-0.56875 0.11042,-1.14088 0.14211,-1.71411 z m 9.22993,2.09599 c -0.0736,0.50168 -0.15968,1.00028 -0.2589,1.49397 l -2.43654,0.16485 c 0.0992,-0.4937 0.1854,-0.99172 0.2589,-1.49345 z m -9.50433,0.64492 c -0.0735,0.5017 -0.15965,0.99976 -0.25889,1.49345 l -2.43655,0.16537 c 0.0992,-0.4937 0.1854,-0.99224 0.2589,-1.49397 z m 8.95966,2.11357 c -0.10773,0.42876 -0.22502,0.8534 -0.35346,1.27227 l -2.43655,0.16537 c 0.1284,-0.41887 0.24579,-0.8435 0.35347,-1.27228 z m -9.50433,0.64492 c -0.10773,0.42877 -0.22504,0.85342 -0.35346,1.27227 l -2.43655,0.16537 c 0.12852,-0.41887 0.24577,-0.8435 0.35347,-1.27227 z m 8.63307,2.13631 c -0.13536,0.35498 -0.27916,0.70462 -0.43098,1.04903 l -2.43603,0.16536 c 0.15182,-0.34439 0.29512,-0.69403 0.43046,-1.04903 z m -9.50433,0.6444 c -0.13535,0.35501 -0.27916,0.70513 -0.43098,1.04955 l -2.43603,0.16536 c 0.15185,-0.3444 0.2951,-0.69455 0.43047,-1.04955 z m 8.19175,2.16628 c -0.15889,0.27857 -0.32659,0.55453 -0.50281,0.8263 l -2.43655,0.16537 c 0.17623,-0.27176 0.34392,-0.54774 0.50281,-0.82631 z m -9.50433,0.64492 c -0.15891,0.27857 -0.3266,0.55455 -0.50281,0.8263 l -2.43603,0.16485 c 0.17624,-0.27179 0.3434,-0.54773 0.50229,-0.8263 z m 7.43262,2.21743 c -0.19034,0.20757 -0.38679,0.40926 -0.58911,0.6041 l -2.43603,0.16537 c 0.20234,-0.19481 0.39826,-0.39657 0.5886,-0.6041 z m -9.50433,0.64492 c -0.19033,0.20755 -0.38677,0.40927 -0.58911,0.6041 l -2.43603,0.16485 c 0.20233,-0.19482 0.39878,-0.39656 0.58911,-0.6041 z m 5.13664,2.37299 c -0.74611,0.26737 -1.53495,0.4404 -2.36368,0.49661 l -2.43603,0.16536 c 0.82873,-0.0563 1.61706,-0.22928 2.36316,-0.49661 z m -9.50433,0.64492 c -0.74613,0.26733 -1.53445,0.43986 -2.36317,0.49609 v 5.3e-4 l -2.43654,0.16485 c 0.82872,-0.0563 1.61707,-0.22875 2.36316,-0.4961 z"
       id="path822"
       inkscape:connector-curvature="0" />
  </g>
</svg>
